# xmcd CD database file
#
# Track frame offsets:
#	183
#	9840
#	22985
#	39095
#	52793
#	64603
#	75973
#	89278
#	111723
#	124423
#	134470
#	147013
#	160318
#	177603
#	189113
#	201508
#	212725
#	229558
#	244968
#	263290
#
# Disc length: 3749 seconds
#
# Revision: 1
# Processed by: cddbd v1.5.2PL0 Copyright (c) Steve Scherf et al.
# Submitted via: CDex 1.70beta2
#
DISCID=040ea314
DTITLE=Tomáš Linka - Pani ma se ma
DYEAR=1993
DGENRE=Country
TTITLE0=Kamarád
TTITLE1=Je mi líto
TTITLE2=Bláznivý blues
TTITLE3=Prej si
TTITLE4=Pùlnocní kovboj
TTITLE5=Panenka
TTITLE6=Ten kram je muj dzip
TTITLE7=Svita ve tvych tvarich
TTITLE8=To jsem ja
TTITLE9=Ptacata
TTITLE10=Chci byt vodou na tvuj mlyn
TTITLE11=Jitro vchazi oknem
TTITLE12=Hitparada lasky
TTITLE13=Tak ja jdu dal
TTITLE14=Kovbojove a klauni
TTITLE15=Help me make it through The Night
TTITLE16=Touha
TTITLE17=Divnej smich
TTITLE18=Pani ma se ma
TTITLE19=Lojza a Liza
EXTD=Tomas Linka 20 Hitu YEAR: 1993
EXTT0=
EXTT1=
EXTT2=
EXTT3=
EXTT4=
EXTT5=
EXTT6=
EXTT7=
EXTT8=
EXTT9=
EXTT10=
EXTT11=
EXTT12=
EXTT13=
EXTT14=
EXTT15=
EXTT16=
EXTT17=
EXTT18=
EXTT19=
PLAYORDER=
